<mxfile host="app.diagrams.net" modified="2021-09-24T19:55:35.155Z" agent="5.0 (Macintosh; Intel Mac OS X 10_15_7) AppleWebKit/537.36 (KHTML, like Gecko) Chrome/94.0.4606.54 Safari/537.36" etag="bauZKF57iLAQ2neEiNUZ" version="15.3.0" type="github">
  <diagram name="Page-1" id="e7e014a7-5840-1c2e-5031-d8a46d1fe8dd">
    <mxGraphModel dx="1186" dy="698" grid="1" gridSize="10" guides="1" tooltips="1" connect="1" arrows="1" fold="1" page="1" pageScale="1" pageWidth="1169" pageHeight="826" background="none" math="0" shadow="0">
      <root>
        <mxCell id="0" />
        <mxCell id="1" parent="0" />
        <mxCell id="2" value="User" style="swimlane;whiteSpace=wrap" parent="1" vertex="1">
          <mxGeometry x="164.5" y="128" width="280" height="570" as="geometry">
            <mxRectangle x="164.5" y="128" width="60" height="23" as="alternateBounds" />
          </mxGeometry>
        </mxCell>
        <mxCell id="5" value="" style="ellipse;shape=startState;fillColor=#000000;strokeColor=#ff0000;" parent="2" vertex="1">
          <mxGeometry x="100" y="40" width="30" height="30" as="geometry" />
        </mxCell>
        <mxCell id="6" value="" style="edgeStyle=elbowEdgeStyle;elbow=horizontal;verticalAlign=bottom;endArrow=open;endSize=8;strokeColor=#000000;endFill=1;rounded=0" parent="2" source="5" target="7" edge="1">
          <mxGeometry x="100" y="40" as="geometry">
            <mxPoint x="115" y="110" as="targetPoint" />
          </mxGeometry>
        </mxCell>
        <mxCell id="7" value="Gebruiker wilt &#xa;bulk toevoegeÂ " style="" parent="2" vertex="1">
          <mxGeometry x="60" y="110" width="110" height="50" as="geometry" />
        </mxCell>
        <mxCell id="8" value="bestand kiezen" style="" parent="2" vertex="1">
          <mxGeometry x="60" y="220" width="110" height="50" as="geometry" />
        </mxCell>
        <mxCell id="9" value="" style="endArrow=open;strokeColor=#400000;endFill=1;rounded=0" parent="2" source="7" target="8" edge="1">
          <mxGeometry relative="1" as="geometry" />
        </mxCell>
        <mxCell id="10" value="Bestad sturen" style="" parent="2" vertex="1">
          <mxGeometry x="60" y="325" width="110" height="50" as="geometry" />
        </mxCell>
        <mxCell id="11" value="" style="endArrow=open;strokeColor=#000000;endFill=1;rounded=0" parent="2" source="8" target="10" edge="1">
          <mxGeometry relative="1" as="geometry" />
        </mxCell>
        <mxCell id="F_76W57asn8M-OU8FL36-49" value="Toon bestand toegevoegd" style="rounded=0;whiteSpace=wrap;html=1;" vertex="1" parent="2">
          <mxGeometry x="75.5" y="452" width="84.5" height="40" as="geometry" />
        </mxCell>
        <mxCell id="3" value="System" style="swimlane;whiteSpace=wrap" parent="1" vertex="1">
          <mxGeometry x="445" y="128" width="280" height="570" as="geometry">
            <mxRectangle x="445" y="128" width="80" height="23" as="alternateBounds" />
          </mxGeometry>
        </mxCell>
        <mxCell id="18" value="Bestand &#xa;controlere" style="" parent="3" vertex="1">
          <mxGeometry x="30.5" y="325" width="110" height="50" as="geometry" />
        </mxCell>
        <mxCell id="F_76W57asn8M-OU8FL36-41" value="" style="ellipse;html=1;shape=endState;fillColor=#000000;strokeColor=#ff0000;" vertex="1" parent="3">
          <mxGeometry x="99.5" y="512" width="30" height="30" as="geometry" />
        </mxCell>
        <mxCell id="F_76W57asn8M-OU8FL36-42" value="" style="endArrow=open;strokeColor=#1C0000;endFill=1;rounded=0;entryX=0;entryY=0.5;entryDx=0;entryDy=0;" edge="1" parent="3" target="F_76W57asn8M-OU8FL36-43">
          <mxGeometry relative="1" as="geometry">
            <mxPoint x="140.5" y="352" as="sourcePoint" />
            <mxPoint x="240.5" y="362" as="targetPoint" />
          </mxGeometry>
        </mxCell>
        <mxCell id="F_76W57asn8M-OU8FL36-43" value="" style="rhombus;whiteSpace=wrap;html=1;" vertex="1" parent="3">
          <mxGeometry x="185.5" y="330" width="44.5" height="45" as="geometry" />
        </mxCell>
        <mxCell id="F_76W57asn8M-OU8FL36-46" value="Bestand toevoegen aan database" style="rounded=0;whiteSpace=wrap;html=1;" vertex="1" parent="3">
          <mxGeometry x="65" y="402" width="99" height="48" as="geometry" />
        </mxCell>
        <mxCell id="F_76W57asn8M-OU8FL36-44" style="edgeStyle=orthogonalEdgeStyle;rounded=0;orthogonalLoop=1;jettySize=auto;html=1;entryX=1;entryY=0.5;entryDx=0;entryDy=0;" edge="1" parent="3" source="F_76W57asn8M-OU8FL36-43" target="F_76W57asn8M-OU8FL36-46">
          <mxGeometry relative="1" as="geometry">
            <mxPoint x="175" y="442" as="targetPoint" />
            <Array as="points">
              <mxPoint x="208" y="426" />
            </Array>
          </mxGeometry>
        </mxCell>
        <mxCell id="20" value="" style="endArrow=open;strokeColor=#000000;endFill=1;rounded=0" parent="1" source="10" target="18" edge="1">
          <mxGeometry relative="1" as="geometry" />
        </mxCell>
        <mxCell id="F_76W57asn8M-OU8FL36-45" style="edgeStyle=orthogonalEdgeStyle;rounded=0;orthogonalLoop=1;jettySize=auto;html=1;entryX=1;entryY=0.5;entryDx=0;entryDy=0;" edge="1" parent="1" source="F_76W57asn8M-OU8FL36-43" target="8">
          <mxGeometry relative="1" as="geometry">
            <Array as="points">
              <mxPoint x="653" y="373" />
            </Array>
          </mxGeometry>
        </mxCell>
        <mxCell id="F_76W57asn8M-OU8FL36-48" value="Slecht formaat" style="edgeLabel;html=1;align=center;verticalAlign=middle;resizable=0;points=[];" vertex="1" connectable="0" parent="F_76W57asn8M-OU8FL36-45">
          <mxGeometry x="-0.6973" relative="1" as="geometry">
            <mxPoint as="offset" />
          </mxGeometry>
        </mxCell>
        <mxCell id="F_76W57asn8M-OU8FL36-47" style="edgeStyle=orthogonalEdgeStyle;rounded=0;orthogonalLoop=1;jettySize=auto;html=1;entryX=1;entryY=0.5;entryDx=0;entryDy=0;" edge="1" parent="1" source="F_76W57asn8M-OU8FL36-46" target="F_76W57asn8M-OU8FL36-49">
          <mxGeometry relative="1" as="geometry" />
        </mxCell>
        <mxCell id="F_76W57asn8M-OU8FL36-50" style="edgeStyle=orthogonalEdgeStyle;rounded=0;orthogonalLoop=1;jettySize=auto;html=1;entryX=0;entryY=0.5;entryDx=0;entryDy=0;exitX=0.5;exitY=1;exitDx=0;exitDy=0;" edge="1" parent="1" source="F_76W57asn8M-OU8FL36-49" target="F_76W57asn8M-OU8FL36-41">
          <mxGeometry relative="1" as="geometry">
            <mxPoint x="510" y="652" as="sourcePoint" />
            <mxPoint x="324.5" y="698" as="targetPoint" />
          </mxGeometry>
        </mxCell>
      </root>
    </mxGraphModel>
  </diagram>
</mxfile>
